<?xml version="1.0" standalone="no"?>
<!DOCTYPE svg PUBLIC "-//W3C//DTD SVG 20010904//EN"
 "http://www.w3.org/TR/2001/REC-SVG-20010904/DTD/svg10.dtd">
<svg version="1.0" xmlns="http://www.w3.org/2000/svg"
 width="50.000000pt" height="50.000000pt" viewBox="0 0 512.000000 512.000000"
 preserveAspectRatio="xMidYMid meet">

<g transform="translate(0.000000,512.000000) scale(0.100000,-0.100000)"
fill="#000000" stroke="none">
<path d="M2355 4550 c-902 -77 -1698 -620 -2090 -1425 -92 -189 -137 -309
-185 -499 -153 -607 -83 -1233 203 -1795 75 -149 110 -184 185 -185 44 -1 68
10 273 128 123 70 236 140 252 154 72 68 55 192 -33 237 -64 33 -104 22 -270
-75 l-155 -89 -37 77 c-92 192 -188 565 -188 732 l0 40 183 0 c164 0 185 2
215 20 99 61 95 203 -8 257 -40 21 -55 23 -217 23 l-173 0 0 44 c0 68 38 276
76 412 33 121 128 369 145 379 4 3 76 -33 158 -80 83 -47 166 -89 185 -92 86
-14 175 77 163 167 -8 65 -38 93 -197 185 -82 47 -150 90 -150 94 0 13 106
151 187 243 104 119 261 259 377 338 39 26 50 30 57 19 5 -8 43 -74 85 -147
77 -133 114 -177 160 -188 107 -27 212 74 184 176 -5 19 -46 98 -90 174 -44
77 -79 143 -78 148 4 12 130 68 242 107 164 58 353 100 529 117 l67 7 0 -179
c0 -201 7 -230 69 -271 71 -48 175 -20 213 57 15 29 18 63 18 213 l0 177 23 0
c42 0 189 -21 291 -41 171 -35 526 -162 526 -189 0 -4 -36 -70 -80 -146 -44
-77 -85 -155 -90 -174 -28 -102 77 -203 184 -176 47 12 83 55 166 201 46 80
87 145 90 145 12 0 153 -109 245 -190 135 -118 372 -395 362 -423 -1 -5 -68
-47 -147 -93 -81 -46 -156 -97 -169 -114 -35 -45 -40 -115 -9 -159 37 -54 73
-76 127 -76 41 0 66 11 199 88 84 48 156 85 161 83 17 -11 112 -259 145 -380
38 -136 76 -344 76 -412 l0 -44 -173 0 c-162 0 -177 -2 -217 -23 -103 -54
-107 -196 -8 -257 30 -18 51 -20 216 -20 l182 0 0 -44 c0 -76 -47 -325 -84
-448 -38 -125 -83 -243 -119 -313 l-22 -44 -155 90 c-166 96 -206 107 -270 74
-88 -45 -105 -169 -33 -237 16 -14 129 -84 252 -154 204 -117 229 -129 272
-128 67 1 107 34 161 136 146 270 243 575 290 903 7 50 13 187 13 310 0 259
-17 401 -75 631 -49 192 -93 312 -186 500 -370 756 -1092 1282 -1927 1405
-152 22 -429 31 -572 19z"/>
<path d="M1470 3152 c-70 -35 -99 -119 -66 -195 8 -18 174 -191 374 -391 l359
-358 -19 -52 c-59 -153 -21 -346 94 -471 127 -140 318 -191 493 -133 l66 21
92 -90 c105 -104 120 -113 179 -113 80 0 148 66 148 143 0 54 -10 70 -117 179
-88 90 -94 98 -82 119 21 41 39 123 39 184 1 325 -318 551 -626 446 l-59 -20
-365 364 c-201 200 -378 369 -393 375 -41 15 -77 12 -117 -8z m1147 -993 c95
-35 139 -149 93 -239 -31 -61 -73 -85 -150 -85 -77 0 -119 24 -150 85 -69 136
66 292 207 239z"/>
<path d="M2002 840 c-99 -61 -95 -203 8 -257 l43 -23 507 0 507 0 43 23 c103
54 107 196 8 257 -32 19 -52 20 -558 20 -506 0 -526 -1 -558 -20z"/>
</g>
</svg>
