<?xml version="1.0" encoding="UTF-8" standalone="no"?><!DOCTYPE svg PUBLIC "-//W3C//DTD SVG 1.1//EN" "http://www.w3.org/Graphics/SVG/1.1/DTD/svg11.dtd"><svg width="100%" height="100%" viewBox="0 0 16 16" version="1.1" xmlns="http://www.w3.org/2000/svg" xmlns:xlink="http://www.w3.org/1999/xlink" xml:space="preserve" xmlns:serif="http://www.serif.com/" style="fill-rule:evenodd;clip-rule:evenodd;stroke-linejoin:round;stroke-miterlimit:2;"><path d="M6.919,8.773c-0.32,-0.023 -0.614,-0.139 -0.855,-0.322c-0.268,0.204 -0.604,0.326 -0.967,0.326c-0.884,0 -1.601,-0.718 -1.601,-1.601c-0,-0.81 0.602,-1.48 1.383,-1.586c0.045,-0.712 0.537,-1.347 1.263,-1.539c0.475,-0.126 0.958,-0.038 1.344,0.206c0.532,-0.74 1.525,-1.039 2.397,-0.665c0.806,0.346 1.266,1.163 1.197,1.993c0.801,0.088 1.424,0.767 1.424,1.591c0,0.883 -0.717,1.601 -1.601,1.601c-0.363,0 -0.699,-0.122 -0.967,-0.326c-0.269,0.204 -0.605,0.326 -0.968,0.326c-0.15,0 -0.295,-0.021 -0.433,-0.06l-0.484,0.599l0.939,0c0.051,0 0.096,0.032 0.113,0.08c0.017,0.048 0.002,0.101 -0.037,0.133l-3.701,3.013c-0.048,0.039 -0.117,0.035 -0.161,-0.008c-0.043,-0.044 -0.047,-0.113 -0.008,-0.161l1.838,-2.272l-0.939,0c-0.046,0 -0.088,-0.026 -0.108,-0.068c-0.02,-0.042 -0.014,-0.091 0.015,-0.127l0.917,-1.133Zm1.378,-0.143c-0.105,-0.049 -0.205,-0.109 -0.297,-0.179c-0.218,0.166 -0.48,0.277 -0.765,0.313l-0.888,1.097l0.939,0c0.046,0 0.088,0.027 0.108,0.069c0.02,0.041 0.014,0.091 -0.015,0.127l-1.271,1.57l2.545,-2.071l-0.854,0c-0.046,0 -0.088,-0.027 -0.108,-0.068c-0.02,-0.042 -0.014,-0.092 0.015,-0.128l0.591,-0.73Zm-3.597,0.773l-0.831,1.44c-0.034,0.058 -0.014,0.131 0.043,0.164c0.058,0.034 0.131,0.014 0.164,-0.044l0.832,-1.44c0.033,-0.058 0.014,-0.131 -0.044,-0.164c-0.057,-0.033 -0.131,-0.014 -0.164,0.044Zm6.615,0l-0.832,1.44c-0.033,0.058 -0.014,0.131 0.044,0.164c0.057,0.034 0.131,0.014 0.164,-0.044l0.832,-1.44c0.033,-0.058 0.013,-0.131 -0.044,-0.164c-0.058,-0.033 -0.131,-0.014 -0.164,0.044Zm-1.654,0l-0.832,1.44c-0.033,0.058 -0.013,0.131 0.044,0.164c0.058,0.034 0.131,0.014 0.164,-0.044l0.832,-1.44c0.033,-0.058 0.013,-0.131 -0.044,-0.164c-0.057,-0.033 -0.131,-0.014 -0.164,0.044Zm-3.889,1.008l-0.25,0.432c-0.033,0.058 -0.013,0.131 0.044,0.164c0.057,0.034 0.131,0.014 0.164,-0.044l0.25,-0.432c0.033,-0.057 0.013,-0.131 -0.044,-0.164c-0.058,-0.033 -0.131,-0.013 -0.164,0.044Zm1.674,-5.89c0.027,0.02 0.061,0.027 0.094,0.021c0.033,-0.006 0.062,-0.026 0.079,-0.054c0.45,-0.716 1.368,-1.019 2.169,-0.675c0.746,0.32 1.155,1.098 1.04,1.865c-0.005,0.034 0.005,0.068 0.027,0.095c0.022,0.026 0.054,0.042 0.088,0.042c0.733,0.022 1.321,0.623 1.321,1.361c-0,0.751 -0.609,1.361 -1.361,1.361c-0.339,0 -0.65,-0.125 -0.889,-0.331c-0.045,-0.039 -0.112,-0.039 -0.157,0c-0.238,0.206 -0.549,0.331 -0.889,0.331c-0.34,0 -0.651,-0.125 -0.89,-0.331c-0.045,-0.039 -0.111,-0.039 -0.156,0c-0.239,0.206 -0.55,0.331 -0.89,0.331c-0.34,0 -0.651,-0.125 -0.889,-0.331c-0.045,-0.039 -0.112,-0.039 -0.157,0c-0.239,0.206 -0.55,0.331 -0.889,0.331c-0.752,0 -1.361,-0.61 -1.361,-1.361c0,-0.72 0.56,-1.31 1.268,-1.358c0.063,-0.004 0.112,-0.057 0.112,-0.12c-0.001,-0.648 0.432,-1.242 1.087,-1.415c0.446,-0.118 0.899,-0.017 1.243,0.238Z"/></svg>